<mxfile host="app.diagrams.net" agent="Mozilla/5.0 (Macintosh; Intel Mac OS X 10.15; rv:128.0) Gecko/20100101 Firefox/128.0" version="24.7.6">
  <diagram name="Page-1" id="e3a06f82-3646-2815-327d-82caf3d4e204">
    <mxGraphModel dx="1865" dy="1251" grid="1" gridSize="10" guides="1" tooltips="1" connect="1" arrows="1" fold="1" page="1" pageScale="1.5" pageWidth="1169" pageHeight="826" background="none" math="0" shadow="0">
      <root>
        <mxCell id="0" style=";html=1;" />
        <mxCell id="1" style=";html=1;" parent="0" />
        <mxCell id="6a7d8f32e03d9370-61" value="Outside Networks" style="whiteSpace=wrap;html=1;fillColor=#f8cecc;fontSize=14;strokeColor=none;verticalAlign=top;" parent="1" vertex="1">
          <mxGeometry x="1084" y="296" width="493" height="360" as="geometry" />
        </mxCell>
        <mxCell id="6a7d8f32e03d9370-58" value="Residential Private Networks" style="whiteSpace=wrap;html=1;fillColor=#dae8fc;fontSize=14;strokeColor=none;verticalAlign=top;" parent="1" vertex="1">
          <mxGeometry x="998" y="820" width="310" height="318" as="geometry" />
        </mxCell>
        <mxCell id="6a7d8f32e03d9370-57" value="Enterprise Networks" style="whiteSpace=wrap;html=1;fillColor=#FFD470;gradientColor=none;fontSize=14;strokeColor=none;verticalAlign=top;" parent="1" vertex="1">
          <mxGeometry x="1260" y="690" width="308" height="680" as="geometry" />
        </mxCell>
        <mxCell id="6a7d8f32e03d9370-1" value="Client" style="verticalLabelPosition=bottom;aspect=fixed;html=1;verticalAlign=top;strokeColor=none;shape=mxgraph.citrix.laptop_2;fillColor=#66B2FF;gradientColor=#0066CC;fontSize=14;" parent="1" vertex="1">
          <mxGeometry x="1171.5" y="884" width="116" height="86.5" as="geometry" />
        </mxCell>
        <mxCell id="6a7d8f32e03d9370-2" value="Client" style="verticalLabelPosition=bottom;aspect=fixed;html=1;verticalAlign=top;strokeColor=none;shape=mxgraph.citrix.laptop_2;fillColor=#66B2FF;gradientColor=#0066CC;fontSize=14;" parent="1" vertex="1">
          <mxGeometry x="1433.5" y="1241" width="116" height="86.5" as="geometry" />
        </mxCell>
        <mxCell id="6a7d8f32e03d9370-3" value="client" style="verticalLabelPosition=bottom;aspect=fixed;html=1;verticalAlign=top;strokeColor=none;shape=mxgraph.citrix.desktop;fillColor=#66B2FF;gradientColor=#0066CC;fontSize=14;" parent="1" vertex="1">
          <mxGeometry x="1447" y="1076" width="89" height="98" as="geometry" />
        </mxCell>
        <mxCell id="6a7d8f32e03d9370-4" value="Client" style="verticalLabelPosition=bottom;aspect=fixed;html=1;verticalAlign=top;strokeColor=none;shape=mxgraph.citrix.desktop;fillColor=#66B2FF;gradientColor=#0066CC;fontSize=14;" parent="1" vertex="1">
          <mxGeometry x="1447" y="912" width="89" height="98" as="geometry" />
        </mxCell>
        <mxCell id="6a7d8f32e03d9370-5" value="Client" style="verticalLabelPosition=bottom;aspect=fixed;html=1;verticalAlign=top;strokeColor=none;shape=mxgraph.citrix.desktop;fillColor=#66B2FF;gradientColor=#0066CC;fontSize=14;" parent="1" vertex="1">
          <mxGeometry x="1443" y="748" width="89" height="98" as="geometry" />
        </mxCell>
        <mxCell id="6a7d8f32e03d9370-6" value="Client" style="verticalLabelPosition=bottom;aspect=fixed;html=1;verticalAlign=top;strokeColor=none;shape=mxgraph.citrix.pda;fillColor=#66B2FF;gradientColor=#0066CC;fontSize=14;" parent="1" vertex="1">
          <mxGeometry x="1214.5" y="1022" width="30" height="61" as="geometry" />
        </mxCell>
        <mxCell id="6a7d8f32e03d9370-13" value="" style="verticalLabelPosition=bottom;aspect=fixed;html=1;verticalAlign=top;strokeColor=none;shape=mxgraph.citrix.router;fillColor=#66B2FF;gradientColor=#0066CC;fontSize=14;" parent="1" vertex="1">
          <mxGeometry x="240" y="201" width="55" height="36.5" as="geometry" />
        </mxCell>
        <mxCell id="6a7d8f32e03d9370-44" style="edgeStyle=none;rounded=0;html=1;startSize=10;endSize=10;jettySize=auto;orthogonalLoop=1;fontSize=14;endArrow=none;endFill=0;strokeWidth=2;" parent="1" source="6a7d8f32e03d9370-17" target="6a7d8f32e03d9370-13" edge="1">
          <mxGeometry relative="1" as="geometry">
            <Array as="points" />
          </mxGeometry>
        </mxCell>
        <mxCell id="6a7d8f32e03d9370-17" value="" style="verticalLabelPosition=bottom;aspect=fixed;html=1;verticalAlign=top;strokeColor=none;shape=mxgraph.citrix.firewall;fillColor=#66B2FF;gradientColor=#0066CC;fontSize=14;" parent="1" vertex="1">
          <mxGeometry x="340" y="180" width="75" height="93" as="geometry" />
        </mxCell>
        <mxCell id="6a7d8f32e03d9370-23" value="" style="verticalLabelPosition=bottom;aspect=fixed;html=1;verticalAlign=top;strokeColor=none;shape=mxgraph.citrix.home_office;fillColor=#66B2FF;gradientColor=#0066CC;fontSize=14;" parent="1" vertex="1">
          <mxGeometry x="1028" y="912" width="80" height="55.5" as="geometry" />
        </mxCell>
        <mxCell id="6a7d8f32e03d9370-24" value="" style="verticalLabelPosition=bottom;aspect=fixed;html=1;verticalAlign=top;strokeColor=none;shape=mxgraph.citrix.hq_enterprise;fillColor=#66B2FF;gradientColor=#0066CC;fontSize=14;" parent="1" vertex="1">
          <mxGeometry x="1308" y="844" width="92" height="88" as="geometry" />
        </mxCell>
        <mxCell id="6a7d8f32e03d9370-26" value="" style="verticalLabelPosition=bottom;aspect=fixed;html=1;verticalAlign=top;strokeColor=none;shape=mxgraph.citrix.switch;fillColor=#66B2FF;gradientColor=#0066CC;fontSize=14;" parent="1" vertex="1">
          <mxGeometry x="510" y="194" width="110.85" height="50" as="geometry" />
        </mxCell>
        <mxCell id="6a7d8f32e03d9370-27" value="Client" style="verticalLabelPosition=top;aspect=fixed;html=1;verticalAlign=bottom;strokeColor=none;shape=mxgraph.citrix.thin_client;fillColor=#66B2FF;gradientColor=#0066CC;fontSize=14;labelPosition=center;align=center;" parent="1" vertex="1">
          <mxGeometry x="1437" y="498" width="71" height="71" as="geometry" />
        </mxCell>
        <mxCell id="6a7d8f32e03d9370-28" value="Client" style="verticalLabelPosition=top;aspect=fixed;html=1;verticalAlign=bottom;strokeColor=none;shape=mxgraph.citrix.thin_client;fillColor=#66B2FF;gradientColor=#0066CC;fontSize=14;labelPosition=center;align=center;" parent="1" vertex="1">
          <mxGeometry x="1359" y="374" width="71" height="71" as="geometry" />
        </mxCell>
        <mxCell id="6a7d8f32e03d9370-29" value="Client" style="verticalLabelPosition=top;aspect=fixed;html=1;verticalAlign=bottom;strokeColor=none;shape=mxgraph.citrix.thin_client;fillColor=#66B2FF;gradientColor=#0066CC;fontSize=14;labelPosition=center;align=center;" parent="1" vertex="1">
          <mxGeometry x="1203" y="338" width="71" height="71" as="geometry" />
        </mxCell>
        <mxCell id="6a7d8f32e03d9370-62" value="Home Network Architecture" style="text;strokeColor=none;fillColor=none;html=1;fontSize=24;fontStyle=1;verticalAlign=middle;align=center;" parent="1" vertex="1">
          <mxGeometry x="499" y="30" width="861" height="40" as="geometry" />
        </mxCell>
        <mxCell id="xd6e7SKUAKSgg07Ta6u9-2" value="" style="fontColor=#0066CC;verticalAlign=top;verticalLabelPosition=bottom;labelPosition=center;align=center;html=1;outlineConnect=0;fillColor=#CCCCCC;strokeColor=#6881B3;gradientColor=none;gradientDirection=north;strokeWidth=2;shape=mxgraph.networks.modem;" vertex="1" parent="1">
          <mxGeometry x="80" y="194" width="100" height="30" as="geometry" />
        </mxCell>
        <mxCell id="xd6e7SKUAKSgg07Ta6u9-6" style="edgeStyle=orthogonalEdgeStyle;rounded=0;orthogonalLoop=1;jettySize=auto;html=1;" edge="1" parent="1" source="xd6e7SKUAKSgg07Ta6u9-4" target="6a7d8f32e03d9370-26">
          <mxGeometry relative="1" as="geometry" />
        </mxCell>
        <mxCell id="xd6e7SKUAKSgg07Ta6u9-4" value="" style="image;points=[];aspect=fixed;html=1;align=center;shadow=0;dashed=0;image=img/lib/allied_telesis/wireless/Access_Point_Outdoor.svg;" vertex="1" parent="1">
          <mxGeometry x="760" y="150.15" width="35.8" height="138.2" as="geometry" />
        </mxCell>
        <mxCell id="xd6e7SKUAKSgg07Ta6u9-5" value="" style="image;points=[];aspect=fixed;html=1;align=center;shadow=0;dashed=0;image=img/lib/allied_telesis/wireless/Access_Point_Outdoor.svg;" vertex="1" parent="1">
          <mxGeometry x="760" y="340.4" width="35.8" height="138.2" as="geometry" />
        </mxCell>
        <mxCell id="xd6e7SKUAKSgg07Ta6u9-7" style="edgeStyle=orthogonalEdgeStyle;rounded=0;orthogonalLoop=1;jettySize=auto;html=1;entryX=0.857;entryY=0.78;entryDx=0;entryDy=0;entryPerimeter=0;" edge="1" parent="1" source="xd6e7SKUAKSgg07Ta6u9-5" target="6a7d8f32e03d9370-26">
          <mxGeometry relative="1" as="geometry" />
        </mxCell>
        <mxCell id="xd6e7SKUAKSgg07Ta6u9-21" value="" style="group;fontSize=18;fillColor=#3399FF;strokeColor=#6c8ebf;fillStyle=auto;" vertex="1" connectable="0" parent="1">
          <mxGeometry x="60" y="630" width="290" height="360" as="geometry" />
        </mxCell>
        <mxCell id="xd6e7SKUAKSgg07Ta6u9-9" value="&lt;font style=&quot;font-size: 18px;&quot;&gt;Cameras&lt;/font&gt;" style="whiteSpace=wrap;html=1;fillColor=#f8cecc;fontSize=14;strokeColor=none;verticalAlign=top;" vertex="1" parent="xd6e7SKUAKSgg07Ta6u9-21">
          <mxGeometry width="290" height="360" as="geometry" />
        </mxCell>
        <mxCell id="xd6e7SKUAKSgg07Ta6u9-14" value="" style="group" vertex="1" connectable="0" parent="xd6e7SKUAKSgg07Ta6u9-21">
          <mxGeometry x="32.579999999999984" y="70" width="100" height="111" as="geometry" />
        </mxCell>
        <mxCell id="xd6e7SKUAKSgg07Ta6u9-8" value="" style="image;points=[];aspect=fixed;html=1;align=center;shadow=0;dashed=0;image=img/lib/allied_telesis/security/Surveillance_Camera_Ceiling.svg;" vertex="1" parent="xd6e7SKUAKSgg07Ta6u9-14">
          <mxGeometry x="17.420000000000016" width="65.15" height="62" as="geometry" />
        </mxCell>
        <mxCell id="xd6e7SKUAKSgg07Ta6u9-13" value="Driveway" style="text;html=1;align=center;verticalAlign=middle;resizable=0;points=[];autosize=1;strokeColor=none;fillColor=none;fontSize=18;" vertex="1" parent="xd6e7SKUAKSgg07Ta6u9-14">
          <mxGeometry y="71" width="100" height="40" as="geometry" />
        </mxCell>
        <mxCell id="xd6e7SKUAKSgg07Ta6u9-15" value="" style="group" vertex="1" connectable="0" parent="xd6e7SKUAKSgg07Ta6u9-21">
          <mxGeometry x="150" y="220" width="100" height="110.36036036036036" as="geometry" />
        </mxCell>
        <mxCell id="xd6e7SKUAKSgg07Ta6u9-16" value="" style="image;points=[];aspect=fixed;html=1;align=center;shadow=0;dashed=0;image=img/lib/allied_telesis/security/Surveillance_Camera_Ceiling.svg;" vertex="1" parent="xd6e7SKUAKSgg07Ta6u9-15">
          <mxGeometry x="17.420000000000016" width="64.56306306306307" height="61.44144144144144" as="geometry" />
        </mxCell>
        <mxCell id="xd6e7SKUAKSgg07Ta6u9-17" value="Backyard" style="text;html=1;align=center;verticalAlign=middle;resizable=0;points=[];autosize=1;strokeColor=none;fillColor=none;fontSize=18;" vertex="1" parent="xd6e7SKUAKSgg07Ta6u9-15">
          <mxGeometry y="70.36036036036036" width="100" height="40" as="geometry" />
        </mxCell>
        <mxCell id="xd6e7SKUAKSgg07Ta6u9-18" value="" style="group" vertex="1" connectable="0" parent="xd6e7SKUAKSgg07Ta6u9-21">
          <mxGeometry x="29.999999999999986" y="220" width="100" height="111" as="geometry" />
        </mxCell>
        <mxCell id="xd6e7SKUAKSgg07Ta6u9-19" value="" style="image;points=[];aspect=fixed;html=1;align=center;shadow=0;dashed=0;image=img/lib/allied_telesis/security/Surveillance_Camera_Ceiling.svg;" vertex="1" parent="xd6e7SKUAKSgg07Ta6u9-18">
          <mxGeometry x="17.420000000000016" width="65.15" height="62" as="geometry" />
        </mxCell>
        <mxCell id="xd6e7SKUAKSgg07Ta6u9-20" value="Frontyard" style="text;html=1;align=center;verticalAlign=middle;resizable=0;points=[];autosize=1;strokeColor=none;fillColor=none;fontSize=18;" vertex="1" parent="xd6e7SKUAKSgg07Ta6u9-18">
          <mxGeometry y="71" width="100" height="40" as="geometry" />
        </mxCell>
        <mxCell id="xd6e7SKUAKSgg07Ta6u9-26" value="" style="group" vertex="1" connectable="0" parent="xd6e7SKUAKSgg07Ta6u9-21">
          <mxGeometry x="160" y="61" width="80" height="120" as="geometry" />
        </mxCell>
        <mxCell id="xd6e7SKUAKSgg07Ta6u9-24" value="&lt;div align=&quot;center&quot;&gt;&lt;font style=&quot;font-size: 18px;&quot;&gt;NVR&lt;/font&gt;&lt;/div&gt;" style="text;whiteSpace=wrap;html=1;align=center;" vertex="1" parent="xd6e7SKUAKSgg07Ta6u9-26">
          <mxGeometry y="80" width="80" height="40" as="geometry" />
        </mxCell>
        <mxCell id="xd6e7SKUAKSgg07Ta6u9-23" value="" style="image;html=1;image=img/lib/clip_art/networking/Print_Server_128x128.png" vertex="1" parent="xd6e7SKUAKSgg07Ta6u9-26">
          <mxGeometry width="80" height="80" as="geometry" />
        </mxCell>
        <mxCell id="xd6e7SKUAKSgg07Ta6u9-27" style="edgeStyle=orthogonalEdgeStyle;rounded=0;orthogonalLoop=1;jettySize=auto;html=1;" edge="1" parent="xd6e7SKUAKSgg07Ta6u9-21" source="xd6e7SKUAKSgg07Ta6u9-8" target="xd6e7SKUAKSgg07Ta6u9-23">
          <mxGeometry relative="1" as="geometry" />
        </mxCell>
        <mxCell id="xd6e7SKUAKSgg07Ta6u9-28" style="edgeStyle=orthogonalEdgeStyle;rounded=0;orthogonalLoop=1;jettySize=auto;html=1;entryX=0;entryY=0.5;entryDx=0;entryDy=0;" edge="1" parent="xd6e7SKUAKSgg07Ta6u9-21" source="xd6e7SKUAKSgg07Ta6u9-19" target="xd6e7SKUAKSgg07Ta6u9-23">
          <mxGeometry relative="1" as="geometry" />
        </mxCell>
        <mxCell id="xd6e7SKUAKSgg07Ta6u9-29" style="edgeStyle=orthogonalEdgeStyle;rounded=0;orthogonalLoop=1;jettySize=auto;html=1;entryX=0;entryY=0.5;entryDx=0;entryDy=0;" edge="1" parent="xd6e7SKUAKSgg07Ta6u9-21" source="xd6e7SKUAKSgg07Ta6u9-16" target="xd6e7SKUAKSgg07Ta6u9-23">
          <mxGeometry relative="1" as="geometry" />
        </mxCell>
        <mxCell id="xd6e7SKUAKSgg07Ta6u9-30" style="edgeStyle=orthogonalEdgeStyle;rounded=0;orthogonalLoop=1;jettySize=auto;html=1;entryX=0.504;entryY=1.064;entryDx=0;entryDy=0;entryPerimeter=0;" edge="1" parent="1" source="xd6e7SKUAKSgg07Ta6u9-23" target="6a7d8f32e03d9370-26">
          <mxGeometry relative="1" as="geometry" />
        </mxCell>
      </root>
    </mxGraphModel>
  </diagram>
</mxfile>
